<svg xmlns="http://www.w3.org/2000/svg" xmlns:xlink="http://www.w3.org/1999/xlink" width="500" zoomAndPan="magnify" viewBox="0 0 375 374.999991" height="500" preserveAspectRatio="xMidYMid meet" version="1.0"><defs><clipPath id="03d9e96d0e"><path d="M 57 250 L 317 250 L 317 357.222656 L 57 357.222656 Z M 57 250 " clip-rule="nonzero"/></clipPath><clipPath id="40964f212e"><path d="M 117 17.472656 L 257 17.472656 L 257 154 L 117 154 Z M 117 17.472656 " clip-rule="nonzero"/></clipPath></defs><path fill="#50b948" d="M 297.59375 171.382812 L 70.835938 220.609375 L 68.226562 243.46875 L 310.203125 280.527344 Z M 297.59375 171.382812 " fill-opacity="1" fill-rule="nonzero"/><g clip-path="url(#03d9e96d0e)"><path fill="#77bf3f" d="M 314.085938 314.214844 L 67.460938 250.15625 L 57.65625 335.421875 C 56.316406 347.136719 65.421875 357.390625 77.203125 357.390625 L 296.957031 357.390625 C 308.738281 357.390625 317.910156 347.136719 316.507812 335.421875 Z M 314.085938 314.214844 " fill-opacity="1" fill-rule="nonzero"/></g><path fill="#38a34a" d="M 296.957031 165.84375 L 291.226562 116.367188 C 290.273438 108.152344 283.332031 101.976562 275.117188 101.976562 L 98.980469 101.976562 C 90.703125 101.976562 83.761719 108.152344 82.871094 116.367188 L 73.574219 197.046875 Z M 296.957031 165.84375 " fill-opacity="1" fill-rule="nonzero"/><g clip-path="url(#40964f212e)"><path fill="#272727" d="M 249.898438 124.582031 L 249.898438 80.386719 C 249.898438 45.746094 221.691406 17.535156 187.050781 17.535156 C 152.40625 17.535156 124.199219 45.746094 124.199219 80.386719 L 124.199219 124.582031 C 120.25 127.511719 117.640625 132.160156 117.640625 137.507812 C 117.640625 146.421875 124.835938 153.617188 133.75 153.617188 C 142.664062 153.617188 149.859375 146.421875 149.859375 137.507812 C 149.859375 132.222656 147.25 127.511719 143.300781 124.582031 L 143.300781 80.386719 C 143.300781 56.253906 162.914062 36.640625 187.050781 36.640625 C 211.183594 36.640625 230.796875 56.253906 230.796875 80.386719 L 230.796875 124.582031 C 226.847656 127.507812 224.238281 132.160156 224.238281 137.507812 C 224.238281 146.421875 231.433594 153.617188 240.347656 153.617188 C 249.261719 153.617188 256.457031 146.421875 256.457031 137.507812 C 256.457031 132.160156 253.847656 127.511719 249.898438 124.582031 Z M 249.898438 124.582031 " fill-opacity="1" fill-rule="nonzero"/></g></svg>